<?xml version="1.0" encoding="UTF-8"?> <svg xmlns="http://www.w3.org/2000/svg" width="56" height="63" viewBox="0 0 56 63" fill="none"><path d="M24.6047 0C10.5827 0 0 11.5028 0 30.1728C0 50.2584 12.3465 63 29.6315 63C44.4472 63 53.6189 53.6208 54.4126 41.8525H47.7984C46.9165 53.5323 38.9795 60.3455 28.3969 60.3455C15.4331 60.3455 5.29134 50.1699 5.29134 32.4733C5.29134 16.8118 12.9638 4.07023 26.3685 4.07023C36.863 4.07023 44.3591 11.5913 44.2709 28.5801H34.5701V31.677H56V1.32725H50.5323L52.2961 28.5801H46.9165C47.2693 11.4143 38.5386 0 24.6047 0Z" fill="#F1576C"></path></svg> 